<svg xmlns="http://www.w3.org/2000/svg" width="430" height="430" style="width:100%;height:100%;transform:translate3d(0,0,0);content-visibility:visible" viewBox="0 0 430 430"><defs><clipPath id="g"><path d="M0 0h430v430H0z"/></clipPath><clipPath id="k"><path d="M0 0h430v430H0z"/></clipPath><clipPath id="d"><path d="M0 0h430v430H0z"/></clipPath><clipPath id="h"><path d="M0 0h430v430H0z"/></clipPath><clipPath id="f"><path d="M0 0h430v430H0z"/></clipPath><filter id="l" width="300%" height="300%" x="-100%" y="-100%"><feGaussianBlur result="filter_result_0"/></filter><filter id="j" width="300%" height="300%" x="-100%" y="-100%"><feGaussianBlur result="filter_result_0" stdDeviation="52.5 52.5"/></filter><mask id="m" mask-type="alpha"><use xmlns:ns1="http://www.w3.org/1999/xlink" ns1:href="#a"/></mask><mask id="i" mask-type="alpha"><use xmlns:ns2="http://www.w3.org/1999/xlink" ns2:href="#b"/></mask><g id="a" clip-path="url(#d)" style="display:none"><g fill-opacity="0" stroke-linecap="round" stroke-linejoin="round" style="display:none"><path class="primary"/><path class="secondary"/></g><g style="display:none"><path/><path fill-opacity="0" stroke-linecap="round" stroke-linejoin="round" class="secondary"/></g><g fill-opacity="0" stroke-linecap="round" stroke-linejoin="round" style="display:none"><path class="primary"/><path class="secondary"/></g><g style="display:none"><path/><path fill-opacity="0" stroke-linecap="round" stroke-linejoin="round" class="secondary"/></g><g style="display:none"><path/><path fill-opacity="0" stroke-linecap="round" stroke-linejoin="round" class="secondary"/></g><path fill-opacity="0" stroke-linecap="round" stroke-linejoin="round" class="secondary" style="display:none"/><path fill-opacity="0" stroke-linecap="round" stroke-linejoin="round" class="secondary" style="display:none"/><path fill-opacity="0" stroke-linecap="round" stroke-linejoin="round" class="secondary" style="display:none"/></g><g id="b" clip-path="url(#f)" style="display:block"><g fill-opacity="0" stroke-linecap="round" stroke-linejoin="round" stroke-width="12" style="display:block"><path stroke="#121331" d="M251.94 131.87c25.93-12.9 47.87-15.54 58.64-4.78 10.95 10.96 8.02 33.49-5.48 60.02m-78.29-40.32c-14.19 9.71-28.85 21.86-43.01 36.01-50.39 50.4-75.33 107.16-55.71 126.78 19.63 19.62 76.39-5.32 126.78-55.71 9.4-9.4 17.92-19.03 25.42-28.59" class="primary"/><path stroke="#08A88A" d="M316.02 206.564c0 12.575-10.194 22.769-22.769 22.769s-22.769-10.194-22.769-22.769 10.194-22.769 22.769-22.769 22.769 10.194 22.769 22.769" class="secondary"/></g><g style="display:block"><path fill="red" d="M316.02 206.56c0 12.58-10.19 22.77-22.77 22.77-12.57 0-22.77-10.19-22.77-22.77 0-12.57 10.2-22.77 22.77-22.77 12.58 0 22.77 10.2 22.77 22.77"/><path fill-opacity="0" stroke="#08A88A" stroke-linecap="round" stroke-linejoin="round" stroke-width="12" d="M316.02 206.564c0 12.575-10.194 22.769-22.769 22.769s-22.769-10.194-22.769-22.769 10.194-22.769 22.769-22.769 22.769 10.194 22.769 22.769" class="secondary"/></g><g fill-opacity="0" stroke-linecap="round" stroke-linejoin="round" stroke-width="12" style="display:block"><path stroke="#121331" d="M60.43 281.29c-8.53 34.14-4.82 63.57 13.28 81.67 17.67 17.67 46.14 21.62 79.25 13.87m-66.2-157.72c14.64-25.02 34.2-50.46 58.05-74.3 79.87-79.88 177.54-111.71 218.15-71.1 15.93 15.94 20.71 40.66 15.81 69.64M207.331 355.624c28.276-15.087 57.429-36.658 84.532-63.761 34.71-34.71 60.347-72.779 74.91-108.067" class="primary"/><path stroke="#08A88A" d="M104.5 248.918c0 18.732-15.185 33.918-33.917 33.918s-33.918-15.186-33.918-33.918S51.851 215 70.583 215s33.917 15.186 33.917 33.918" class="secondary"/></g><path fill-opacity="0" stroke="#08A88A" stroke-linecap="round" stroke-linejoin="round" stroke-width="19.1" d="M0 0q0 0 0 0m0 0q0 0 0 0" class="secondary" style="display:block" transform="rotate(180 89.982 126.3)"/><path fill-opacity="0" stroke="#08A88A" stroke-linecap="round" stroke-linejoin="round" stroke-width="19.1" d="M0 0q0 0 0 0m0 0q0 0 0 0" class="secondary" style="display:block" transform="rotate(180 165.983 47.8)"/><path fill-opacity="0" stroke="#08A88A" stroke-linecap="round" stroke-linejoin="round" stroke-width="19.1" d="M0 0q0 0 0 0m0 0q0 0 0 0" class="secondary" style="display:block" transform="rotate(180 120.482 191.8)"/><g style="display:block"><path fill="red" d="m324.879 359.835-19.697-8.945 19.697-8.945 9.554-19.697 9.554 19.697 19.697 8.945-19.697 8.945-9.554 19.697z"/><path fill-opacity="0" stroke="#08A88A" stroke-linecap="round" stroke-linejoin="round" stroke-width="12" d="m324.879 359.835-19.697-8.945 19.697-8.945 9.554-19.697 9.554 19.697 19.697 8.945-19.697 8.945-9.554 19.697z" class="secondary"/></g><g style="display:block"><path fill="red" d="M88.588 94.979 64.169 83.89l24.419-11.089 11.845-24.42 11.845 24.42 24.419 11.089-24.419 11.089-11.845 24.42z"/><path fill-opacity="0" stroke="#08A88A" stroke-linecap="round" stroke-linejoin="round" stroke-width="12" d="M88.588 94.979 64.169 83.89l24.419-11.089 11.845-24.42 11.845 24.42 24.419 11.089-24.419 11.089-11.845 24.42z" class="secondary"/></g></g></defs><g clip-path="url(#g)"><g clip-path="url(#h)" mask="url(#i)" style="display:block"><g filter="url(#j)" transform="rotate(-94 238.295 -17.065)scale(2.4)"><g class="design"><path fill="#4BE1EC" d="M0-250c137.975 0 250 112.025 250 250S137.975 250 0 250-250 137.975-250 0-137.975-250 0-250" class="primary"/></g><g class="design"><path fill="#CB5EEE" d="M113.242-295.384c97.478 0 176.5 79.022 176.5 176.5s-79.022 176.5-176.5 176.5c-43.948 0-74.396-34.057-105.29-60.631-37.631-32.369-71.21-62.338-71.21-115.869 0-97.478 79.022-176.5 176.5-176.5" class="secondary"/></g></g></g><g clip-path="url(#k)" filter="url(#l)" mask="url(#m)" style="display:none"><g class="design"><path class="primary"/></g><g class="design"><path class="secondary"/></g></g></g></svg>